<svg width="55" height="55" viewBox="0 0 55 55" fill="none" xmlns="http://www.w3.org/2000/svg">
<path d="M27.5 55C20.2065 55 13.2118 52.1027 8.05454 46.9455C2.89729 41.7882 0 34.7935 0 27.5C0 20.2065 2.89729 13.2118 8.05454 8.05454C13.2118 2.89729 20.2065 0 27.5 0" fill="black"/>
<path d="M0 27.5C0 20.2065 2.89729 13.2118 8.05454 8.05454C13.2118 2.89729 20.2065 0 27.5 0C34.7935 0 41.7882 2.89729 46.9455 8.05454C52.1027 13.2118 55 20.2065 55 27.5" fill="black"/>
<path d="M27.5 52.25C34.0641 52.25 40.3593 49.6424 45.0009 45.0009C49.6424 40.3593 52.25 34.0641 52.25 27.5H27.5V52.25Z" fill="#06D6A0"/>
</svg>
