<svg width="55" height="50" viewBox="0 0 55 50" fill="none" xmlns="http://www.w3.org/2000/svg">
<g clip-path="url(#clip0_7952:321)">
<path d="M30.25 0C36.8141 0 43.1093 2.59459 47.7509 7.21302C52.3924 11.8315 55 18.0954 55 24.6269C55 31.1583 52.3924 37.4223 47.7509 42.0407C43.1093 46.6591 36.8141 49.2537 30.25 49.2537" fill="black"/>
<path d="M11 10.9453C16.1054 10.9453 21.0017 12.9633 24.6118 16.5554C28.2219 20.1476 30.25 25.0195 30.25 30.0995C30.25 35.1796 28.2219 40.0515 24.6118 43.6436C21.0017 47.2358 16.1054 49.2538 11 49.2538" fill="black"/>
<path d="M0 27.3632C2.91738 27.3632 5.71528 28.5163 7.77818 30.5689C9.84108 32.6216 11 35.4056 11 38.3084C11 41.2113 9.84108 43.9953 7.77818 46.0479C5.71528 48.1006 2.91738 49.2537 0 49.2537" fill="#06D6A0"/>
</g>
<defs>
<clipPath id="clip0_7952:321">
<rect width="55" height="49.2537" fill="white"/>
</clipPath>
</defs>
</svg>
