<svg width="133" height="49" viewBox="0 0 133 49" fill="none" xmlns="http://www.w3.org/2000/svg">
<path d="M35.6801 14.8383C32.9084 15.2011 31.1068 16.5408 30.3142 18.0646C29.6682 16.5408 27.8307 14.3667 24.0166 14.8383C21.2809 15.1648 19.4794 17.4478 19.1551 17.9194V15.3825H15.269V33.25H19.4151V24.6596C19.4151 20.6378 20.8203 18.5336 23.8442 18.5336C26.652 18.5336 27.0818 21.0369 27.0818 23.9366V33.25H31.2227V23.8278C31.2227 20.6378 32.7359 18.4973 35.7599 18.4973C38.1713 18.4973 38.7118 20.6378 38.7118 22.8845V33.2138H42.8501V21.4359C42.8501 18.3911 40.907 14.1853 35.6801 14.8383Z" fill="black"/>
<path d="M57.1437 15.2737C54.6962 14.3305 51.4201 14.657 49.5851 15.7454C47.4619 16.94 46.6332 18.3912 46.2729 19.5132L49.8013 20.8089C50.6274 18.4767 52.7892 17.8729 55.0565 18.4508C57.54 19.1038 57.6841 21.1717 57.2878 22.3378C55.2727 22.0113 53.219 22.229 51.4561 22.5192C47.6395 23.1723 45.5163 25.2013 45.7685 28.7178C46.0927 31.9804 49.0446 34.082 52.7532 33.7192C53.7141 33.6293 54.6456 33.3377 55.4878 32.8633C56.33 32.3889 57.0641 31.742 57.643 30.9645L57.7871 33.2475H61.7478L61.6397 21.3609C61.6449 18.969 60.1677 16.3958 57.1437 15.2737ZM54.0837 30.3893C51.7083 30.9309 49.8013 29.7725 49.8013 28.0311C49.8013 24.9214 54.1558 25.4216 57.7202 25.6755C57.9724 27.4895 56.7474 29.7362 54.0837 30.3893Z" fill="black"/>
<path d="M82.2748 29.0103C81.7601 28.4299 81.6983 27.3078 81.6983 24.8045V18.9687H86.0528V15.3408H81.7472V9.97925H77.8869V14.2576C77.8869 15.0558 77.7427 15.346 76.7004 15.346H70.7169V9.97925H66.8565V14.2576C66.8565 15.0558 66.715 15.346 65.6701 15.346H63.5469V18.9739H66.6352V27.8183C66.6352 29.8914 67.4973 32.7134 70.7014 33.4027C72.8246 33.8718 74.2298 33.439 75.635 32.8845L74.3739 29.4042C73.6173 29.8759 72.0577 29.9484 71.2419 29.0052C70.7272 28.4247 70.6654 27.3026 70.6654 24.7993V18.9687H77.6501V27.8131C77.6501 29.8862 78.5148 32.7082 81.7189 33.3975C83.8421 33.8666 85.2473 33.4338 86.6499 32.8793L85.3914 29.399C84.6502 29.881 83.1009 29.9666 82.2748 29.0103Z" fill="black"/>
<path d="M97.2143 14.802C92.4275 14.802 88.1064 17.9117 88.1064 24.2269C88.1064 29.4096 91.5267 33.6128 97.2864 33.6128C101.968 33.6128 104.776 30.7623 105.674 28.5389L101.932 27.4168C101.139 28.938 99.6155 30.2803 96.9261 30.1715C93.3617 29.9901 92.2113 26.7275 92.2113 25.3126L105.89 25.1675C106.43 17.9557 101.968 14.802 97.2143 14.802ZM92.4275 22.0864C92.6437 20.0573 94.4066 18.4584 96.4937 18.2822C99.878 17.992 101.641 20.3553 101.641 22.0501L92.4275 22.0864Z" fill="black"/>
<path d="M115.935 15.1647C114.172 15.8152 113.307 16.6859 112.733 18.1008V15.455H108.808V33.18L112.733 33.2137V27.7718C112.733 23.0607 112.733 21.7209 113.956 20.306C115.325 18.7512 117.916 18.4221 119.36 19.1088L120.477 15.5224C119.247 14.802 117.232 14.6931 115.935 15.1647Z" fill="black"/>
<path d="M3.34823 25.8931H0V0H25.7152V3.37139H3.34823V25.8931Z" fill="black"/>
<path d="M133 48.5964H107.287V45.2251H129.652V22.7034H133V48.5964Z" fill="black"/>
</svg>
