<svg width="48" height="53" viewBox="0 0 48 53" fill="none" xmlns="http://www.w3.org/2000/svg">
<path d="M48 29.15C48 35.4754 45.4714 41.5418 40.9705 46.0145C36.4697 50.4872 30.3652 53 24 53C17.6348 53 11.5303 50.4872 7.02946 46.0145C2.52859 41.5418 0 35.4754 0 29.15" fill="black"/>
<path d="M42.6668 10.6C42.6668 15.5197 40.7002 20.238 37.1995 23.7168C33.6989 27.1956 28.9509 29.15 24.0002 29.15C19.0495 29.15 14.3015 27.1956 10.8008 23.7168C7.3001 20.238 5.3335 15.5197 5.3335 10.6" fill="black"/>
<path d="M34.6668 0C34.6668 2.8113 33.543 5.50745 31.5426 7.49534C29.5423 9.48323 26.8291 10.6 24.0002 10.6C21.1712 10.6 18.4581 9.48323 16.4577 7.49534C14.4573 5.50745 13.3335 2.8113 13.3335 0" fill="#06D6A0"/>
</svg>
