<svg width="133" height="49" viewBox="0 0 133 49" fill="none" xmlns="http://www.w3.org/2000/svg">
<path d="M35.6801 15.0404C32.9084 15.4032 31.1069 16.743 30.3142 18.2667C29.6682 16.743 27.8307 14.5688 24.0166 15.0404C21.2809 15.3669 19.4794 17.65 19.1552 18.1216V15.5846H15.2691V33.4522H19.4151V24.8618C19.4151 20.8399 20.8203 18.7357 23.8442 18.7357C26.652 18.7357 27.0818 21.239 27.0818 24.1388V33.4522H31.2227V24.0299C31.2227 20.8399 32.7359 18.6995 35.7599 18.6995C38.1713 18.6995 38.7118 20.8399 38.7118 23.0867V33.4159H42.8501V21.6381C42.8501 18.5932 40.907 14.3874 35.6801 15.0404Z" fill="white"/>
<path d="M57.1438 15.4759C54.6963 14.5326 51.4201 14.8591 49.5851 15.9475C47.4619 17.1421 46.6333 18.5933 46.273 19.7154L49.8013 21.0111C50.6274 18.6788 52.7893 18.075 55.0566 18.6529C57.5401 19.3059 57.6842 21.3739 57.2879 22.54C55.2728 22.2135 53.219 22.4311 51.4561 22.7214C47.6395 23.3744 45.5163 25.4035 45.7685 28.92C46.0928 32.1825 49.0447 34.2841 52.7532 33.9213C53.7141 33.8314 54.6457 33.5399 55.4878 33.0654C56.33 32.591 57.0642 31.9442 57.643 31.1667L57.7871 33.4497H61.7479L61.6398 21.563C61.6449 19.1712 60.1677 16.5979 57.1438 15.4759ZM54.0838 30.5914C51.7084 31.133 49.8013 29.9747 49.8013 28.2332C49.8013 25.1236 54.1558 25.6237 57.7202 25.8777C57.9724 27.6916 56.7474 29.9384 54.0838 30.5914Z" fill="white"/>
<path d="M82.2748 29.2127C81.76 28.6323 81.6983 27.5102 81.6983 25.0069V19.1711H86.0528V15.5432H81.7472V10.1816H77.8868V14.46C77.8868 15.2582 77.7427 15.5484 76.7004 15.5484H70.7168V10.1816H66.8565V14.46C66.8565 15.2582 66.7149 15.5484 65.67 15.5484H63.5468V19.1763H66.6351V28.0207C66.6351 30.0938 67.4973 32.9158 70.7014 33.6051C72.8246 34.0742 74.2298 33.6414 75.6349 33.0868L74.3739 29.6066C73.6172 30.0783 72.0577 30.1508 71.2418 29.2075C70.7271 28.6271 70.6654 27.505 70.6654 25.0017V19.1711H77.65V28.0155C77.65 30.0886 78.5148 32.9106 81.7189 33.5999C83.8421 34.069 85.2472 33.6362 86.6499 33.0817L85.3914 29.6014C84.6502 30.0834 83.1009 30.1689 82.2748 29.2127Z" fill="white"/>
<path d="M97.2144 15.0044C92.4275 15.0044 88.1065 18.1141 88.1065 24.4292C88.1065 29.612 91.5268 33.8152 97.2865 33.8152C101.968 33.8152 104.776 30.9647 105.674 28.7413L101.932 27.6192C101.139 29.1404 99.6156 30.4827 96.9262 30.3739C93.3618 30.1925 92.2114 26.9299 92.2114 25.515L105.89 25.3699C106.43 18.1581 101.968 15.0044 97.2144 15.0044ZM92.4275 22.2888C92.6437 20.2597 94.4066 18.6608 96.4938 18.4846C99.8781 18.1944 101.641 20.5577 101.641 22.2525L92.4275 22.2888Z" fill="white"/>
<path d="M115.935 15.3669C114.172 16.0173 113.307 16.888 112.733 18.3029V15.6571H108.808V33.3822L112.733 33.4159V27.974C112.733 23.2628 112.733 21.9231 113.956 20.5082C115.325 18.9534 117.916 18.6243 119.36 19.311L120.477 15.7245C119.247 15.0041 117.232 14.8953 115.935 15.3669Z" fill="white"/>
<path d="M3.34823 26.0952H0V0.202148H25.7152V3.57353H3.34823V26.0952Z" fill="white"/>
<path d="M133 48.7983H107.287V45.427H129.652V22.9053H133V48.7983Z" fill="white"/>
</svg>
