<svg width="50" height="50" viewBox="0 0 50 50" fill="none" xmlns="http://www.w3.org/2000/svg">
<g clip-path="url(#clip0_7952:308)">
<path d="M26.5751 36.0125C23.6291 38.8058 19.7088 40.3384 15.6494 40.2839C11.5899 40.2293 7.71229 38.5919 4.8424 35.7204C1.97252 32.8488 0.337244 28.9702 0.284983 24.9108C0.232723 20.8514 1.76758 16.9319 4.56259 13.9875L26.5751 36.0125Z" fill="black"/>
<path d="M36.0125 23.425C37.521 24.8569 38.7274 26.5764 39.5605 28.4821C40.3937 30.3877 40.8367 32.441 40.8634 34.5206C40.8902 36.6003 40.5002 38.6642 39.7164 40.5907C38.9326 42.5172 37.7709 44.2672 36.2998 45.7374C34.8287 47.2077 33.0781 48.3684 31.1511 49.1511C29.2242 49.9338 27.16 50.3226 25.0804 50.2947C23.0007 50.2667 20.9478 49.8226 19.0426 48.9883C17.1374 48.1541 15.4186 46.9468 13.9875 45.4375L36.0125 23.425Z" fill="black"/>
<path d="M23.425 13.9875C26.3711 11.1942 30.2914 9.66157 34.3508 9.71613C38.4102 9.7707 42.2879 11.4081 45.1578 14.2797C48.0276 17.1512 49.6629 21.0298 49.7152 25.0892C49.7674 29.1487 48.2326 33.0681 45.4376 36.0125L23.425 13.9875Z" fill="black"/>
<path d="M13.9874 26.575C11.1941 23.629 9.66144 19.7087 9.71601 15.6492C9.77057 11.5898 11.408 7.71217 14.2795 4.84228C17.151 1.97239 21.0296 0.337122 25.0891 0.284861C29.1485 0.232601 33.0679 1.76746 36.0124 4.56247L13.9874 26.575Z" fill="black"/>
<path d="M25 15.5875L34.4375 25.0125L25 34.4375L15.5625 25L25 15.5875Z" fill="#06D6A0"/>
</g>
<defs>
<clipPath id="clip0_7952:308">
<rect width="50" height="50" fill="white"/>
</clipPath>
</defs>
</svg>
